<?xml version="1.0" encoding="UTF-8" standalone="no"?>
<!-- Created with Inkscape (http://www.inkscape.org/) -->

<svg
   xmlns:dc="http://purl.org/dc/elements/1.1/"
   xmlns:cc="http://creativecommons.org/ns#"
   xmlns:rdf="http://www.w3.org/1999/02/22-rdf-syntax-ns#"
   xmlns:svg="http://www.w3.org/2000/svg"
   xmlns="http://www.w3.org/2000/svg"
   xmlns:sodipodi="http://sodipodi.sourceforge.net/DTD/sodipodi-0.dtd"
   xmlns:inkscape="http://www.inkscape.org/namespaces/inkscape"
   width="87.515144mm"
   height="89.515144mm"
   viewBox="0 0 310.09299 317.17965"
   id="svg2"
   version="1.1"
   inkscape:version="0.91 r13725"
   sodipodi:docname="logoblackweb.svg">
  <defs
     id="defs4" />
  <sodipodi:namedview
     id="base"
     pagecolor="#ffffff"
     bordercolor="#666666"
     borderopacity="1.0"
     inkscape:pageopacity="0.0"
     inkscape:pageshadow="2"
     inkscape:zoom="2.8"
     inkscape:cx="111.88837"
     inkscape:cy="145.40514"
     inkscape:document-units="px"
     inkscape:current-layer="layer1"
     showgrid="false"
     fit-margin-left="5"
     fit-margin-right="5"
     fit-margin-top="7"
     fit-margin-bottom="5"
     inkscape:window-width="1920"
     inkscape:window-height="1018"
     inkscape:window-x="-8"
     inkscape:window-y="-8"
     inkscape:window-maximized="1" />
  <metadata
     id="metadata7">
    <rdf:RDF>
      <cc:Work
         rdf:about="">
        <dc:format>image/svg+xml</dc:format>
        <dc:type
           rdf:resource="http://purl.org/dc/dcmitype/StillImage" />
        <dc:title />
      </cc:Work>
    </rdf:RDF>
  </metadata>
  <g
     inkscape:label="Layer 1"
     inkscape:groupmode="layer"
     id="layer1"
     transform="translate(-15.669268,-244.74159)">
    <circle
       style="fill:#000000;fill-opacity:0;stroke:#000000;stroke-width:10;stroke-miterlimit:4;stroke-dasharray:none;stroke-opacity:1"
       id="path4136"
       cx="170.71577"
       cy="406.87473"
       r="132.32999" />
    <g
       transform="scale(0.98775022,1.0124017)"
       style="font-style:normal;font-weight:normal;font-size:274.22393799px;line-height:125%;font-family:sans-serif;letter-spacing:0px;word-spacing:0px;fill:#000000;fill-opacity:1;stroke:none;stroke-width:1px;stroke-linecap:butt;stroke-linejoin:miter;stroke-opacity:1"
       id="text4138">
      <path
         d="m 267.68156,348.88464 q 0,13.16274 -6.03293,24.95437 -5.7587,11.51741 -16.17921,20.84102 -10.42051,9.04939 -24.40593,15.35654 -13.98542,6.30715 -30.43886,8.50095 4.11336,12.34007 9.87207,25.50282 6.03292,12.88853 12.88852,24.95438 6.8556,12.06585 14.25965,22.21214 7.40404,10.14628 14.53386,16.72766 -1.37112,2.74224 -4.11335,5.48448 -2.46802,2.74224 -6.03293,4.93603 -3.29069,2.46801 -7.12982,3.83913 -3.56492,1.64535 -6.8556,1.64535 -6.03293,0 -11.51741,-5.7587 -5.48448,-5.75871 -11.24318,-18.09878 -5.48448,-12.61431 -11.79163,-32.35843 -6.03293,-20.01835 -13.43697,-47.98919 -3.01646,0 -6.03293,0 -3.01646,0 -4.66181,-0.54845 -1.91956,-1.09689 -4.11335,-3.83913 -7.40405,15.90499 -13.16275,29.89041 -5.75871,13.98542 -10.42051,27.14817 -4.38759,12.88852 -7.9525,25.2286 -3.29068,12.06585 -5.7587,24.68015 -9.32361,-2.19379 -16.17921,-7.95249 -6.855601,-5.7587 -12.888527,-16.17921 1.096896,-2.46802 2.193791,-4.66181 1.37112,-2.46801 3.290688,-6.58137 1.919567,-4.38759 4.661807,-10.96896 3.016461,-6.58138 7.678271,-17.55033 4.93603,-10.96896 11.5174,-26.87395 6.8556,-15.90499 16.45344,-38.66557 4.38758,-10.14629 7.40405,-17.82456 3.29068,-7.67827 5.7587,-14.53387 2.46801,-7.12982 4.38758,-13.98542 2.19379,-7.12982 4.38759,-16.17921 -12.61431,4.38758 -23.58326,9.87206 -10.69474,5.21025 -17.82456,11.24318 -2.46801,-1.64534 -5.21025,-4.93603 -2.46802,-3.29069 -4.66181,-7.12982 -2.19379,-4.11336 -3.83914,-8.22672 -1.64534,-4.11336 -1.919564,-7.40405 8.226714,-5.48448 20.018344,-10.14628 12.06586,-4.66181 25.50283,-7.9525 13.43697,-3.56491 27.42239,-5.48448 13.98542,-1.91956 26.05128,-1.91956 32.90687,0 51.00565,13.71119 18.09878,13.43698 18.09878,37.02024 z m -66.91064,-23.03482 q -1.91957,2.46802 -6.03293,9.87207 -4.11336,7.40404 -9.59783,17.82455 -5.21026,10.14629 -11.24319,22.21214 -5.7587,12.06585 -11.24318,23.85748 20.5668,0 37.84291,-3.83913 17.2761,-3.83914 29.8904,-10.69473 12.61431,-7.12983 19.4699,-16.45344 7.12983,-9.59784 7.12983,-21.11524 0,-13.7112 -9.87206,-20.84102 -9.87207,-7.40405 -30.43886,-7.40405 -4.66181,0 -9.32362,0.54845 -4.6618,0.27422 -9.87206,0.82267 l 3.29069,5.21025 z"
         style="font-style:normal;font-variant:normal;font-weight:normal;font-stretch:normal;font-family:'Kaushan Script';-inkscape-font-specification:'Kaushan Script'"
         id="path4137" />
    </g>
  </g>
</svg>
